{
    "accessors" : [
        {
            "bufferView" : 0, 
            "componentType" : 5121, 
            "count" : 36, 
            "max" : [
                23
            ], 
            "min" : [
                0
            ], 
            "type" : "SCALAR"
        }, 
        {
            "bufferView" : 1, 
            "componentType" : 5126, 
            "count" : 24, 
            "max" : [
                12.083520889282227, 
                21.092960357666016, 
                10.6126070022583
            ], 
            "min" : [
                -12.083520889282227, 
                0.0, 
                -10.6126070022583
            ], 
            "type" : "VEC3"
        }, 
        {
            "bufferView" : 2, 
            "componentType" : 5126, 
            "count" : 24, 
            "max" : [
                1.0, 
                1.0, 
                1.0
            ], 
            "min" : [
                -1.0, 
                -1.0, 
                -1.0
            ], 
            "type" : "VEC3"
        }, 
        {
            "bufferView" : 3, 
            "componentType" : 5126, 
            "count" : 24, 
            "max" : [
                1.0, 
                1.0
            ], 
            "min" : [
                0.0, 
                0.0
            ], 
            "type" : "VEC2"
        }, 
        {
            "bufferView" : 4, 
            "componentType" : 5126, 
            "count" : 70, 
            "max" : [
                2.299999952316284
            ], 
            "min" : [
                0.0
            ], 
            "type" : "SCALAR"
        }, 
        {
            "bufferView" : 5, 
            "componentType" : 5126, 
            "count" : 70, 
            "max" : [
                34.700496673583984, 
                0.0, 
                10.98547649383545
            ], 
            "min" : [
                -51.38698196411133, 
                0.0, 
                -23.791667938232422
            ], 
            "type" : "VEC3"
        }
    ], 
    "animations" : [
        {
            "channels" : [
                {
                    "sampler" : 0, 
                    "target" : {
                        "node" : 0, 
                        "path" : "translation"
                    }
                }
            ], 
            "extensions" : {
                "S8S_v3d_animation_data" : {
                    "auto" : true, 
                    "loop" : "REPEAT", 
                    "offset" : 0.0, 
                    "repeatCount" : 1.0, 
                    "repeatInfinite" : true
                }
            }, 
            "name" : "Box001", 
            "samplers" : [
                {
                    "input" : 4, 
                    "interpolation" : "LINEAR", 
                    "output" : 5
                }
            ]
        }
    ], 
    "asset" : {
        "generator" : "Soft8Soft Verge3D for 3ds Max plug-in", 
        "version" : "2.0"
    }, 
    "bufferViews" : [
        {
            "buffer" : 0, 
            "byteLength" : 36, 
            "byteOffset" : 0, 
            "target" : 34963
        }, 
        {
            "buffer" : 0, 
            "byteLength" : 288, 
            "byteOffset" : 36, 
            "target" : 34962
        }, 
        {
            "buffer" : 0, 
            "byteLength" : 288, 
            "byteOffset" : 324, 
            "target" : 34962
        }, 
        {
            "buffer" : 0, 
            "byteLength" : 192, 
            "byteOffset" : 612, 
            "target" : 34962
        }, 
        {
            "buffer" : 0, 
            "byteLength" : 280, 
            "byteOffset" : 804
        }, 
        {
            "buffer" : 0, 
            "byteLength" : 840, 
            "byteOffset" : 1084
        }
    ], 
    "buffers" : [
        {
            "byteLength" : 1924, 
            "uri" : "hello.bin"
        }
    ], 
    "cameras" : [
        {
            "extensions" : {
                "S8S_v3d_camera_data" : {
                    "controls" : "ORBIT", 
                    "enablePan" : true, 
                    "moveSpeed" : 1, 
                    "orbitMaxDistance" : 10000, 
                    "orbitMaxPolarAngle" : 3.141592653589793, 
                    "orbitMinDistance" : 0, 
                    "orbitMinPolarAngle" : 0, 
                    "orbitTarget" : [
                        0, 
                        0, 
                        0
                    ], 
                    "rotateSpeed" : 1, 
                    "viewportFitInitialAspect" : 1.3333333730697632, 
                    "viewportFitType" : "VERTICAL"
                }
            }, 
            "name" : "__DEFAULT__", 
            "perspective" : {
                "aspectRatio" : 1.3333333730697632, 
                "yfov" : 0.6024156988215424, 
                "zfar" : 4000.0, 
                "znear" : 1.0
            }, 
            "type" : "perspective"
        }
    ], 
    "extensions" : {
        "S8S_v3d_data" : {
            "lights" : [
                {
                    "color" : [
                        1, 
                        1, 
                        1
                    ], 
                    "intensity" : 1, 
                    "name" : "__DEFAULT__", 
                    "profile" : "max", 
                    "type" : "point"
                }, 
                {
                    "color" : [
                        0.0, 
                        0.0, 
                        0.0
                    ], 
                    "intensity" : 1, 
                    "name" : "__AMBIENT__", 
                    "profile" : "max", 
                    "type" : "ambient"
                }
            ]
        }
    }, 
    "extensionsUsed" : [
        "S8S_v3d_material_data", 
        "S8S_v3d_camera_data", 
        "S8S_v3d_data", 
        "S8S_v3d_node_data", 
        "S8S_v3d_animation_data", 
        "S8S_v3d_scene_data"
    ], 
    "materials" : [
        {
            "doubleSided" : false, 
            "emissiveFactor" : [
                0, 
                0, 
                0
            ], 
            "extensions" : {
                "S8S_v3d_material_data" : {
                    "depthWrite" : true, 
                    "nodeGraph" : {
                        "edges" : [
                            {
                                "fromNode" : 1, 
                                "fromOutput" : 0, 
                                "toInput" : 0, 
                                "toNode" : 0
                            }, 
                            {
                                "fromNode" : 1, 
                                "fromOutput" : 1, 
                                "toInput" : 1, 
                                "toNode" : 0
                            }
                        ], 
                        "nodes" : [
                            {
                                "inputs" : [
                                    [
                                        1, 
                                        1, 
                                        1, 
                                        1
                                    ]
                                ], 
                                "is_active_output" : true, 
                                "name" : "MaxOutput", 
                                "outputs" : [], 
                                "type" : "OUTPUT_MAX"
                            }, 
                            {
                                "IOR" : 1.5, 
                                "inputFactors" : [
                                    0, 
                                    0, 
                                    0, 
                                    0, 
                                    0, 
                                    0, 
                                    0, 
                                    0, 
                                    0, 
                                    0, 
                                    0, 
                                    0
                                ], 
                                "inputs" : [
                                    [
                                        0.529411792755127, 
                                        0.0235294122248888, 
                                        0.0235294122248888, 
                                        1.0
                                    ], 
                                    [
                                        0.529411792755127, 
                                        0.0235294122248888, 
                                        0.0235294122248888, 
                                        1.0
                                    ], 
                                    [
                                        0.8999999761581421, 
                                        0.8999999761581421, 
                                        0.8999999761581421, 
                                        1.0
                                    ], 
                                    0.3100000023841858, 
                                    0.2199999988079071, 
                                    [
                                        0.0, 
                                        0.0, 
                                        0.0, 
                                        1.0
                                    ], 
                                    1.0, 
                                    [
                                        0, 
                                        0, 
                                        0, 
                                        0
                                    ], 
                                    [
                                        0, 
                                        0, 
                                        0
                                    ], 
                                    [
                                        0, 
                                        0, 
                                        0, 
                                        0
                                    ], 
                                    [
                                        0, 
                                        0, 
                                        0, 
                                        0
                                    ], 
                                    0
                                ], 
                                "is_active_output" : false, 
                                "name" : "__DEFAULT__2131454257552", 
                                "outputs" : [
                                    [
                                        0, 
                                        0, 
                                        0, 
                                        0
                                    ]
                                ], 
                                "selfIllumColorOn" : false, 
                                "type" : "MATERIAL_MAX"
                            }
                        ]
                    }, 
                    "profile" : "max", 
                    "useShadeless" : false
                }
            }, 
            "name" : "__DEFAULT__2131454257552"
        }, 
        {
            "extensions" : {
                "S8S_v3d_material_data" : {
                    "depthWrite" : true, 
                    "nodeGraph" : {
                        "edges" : [], 
                        "nodes" : [
                            {
                                "inputs" : [
                                    [
                                        0.0, 
                                        0.0, 
                                        0.0, 
                                        1
                                    ]
                                ], 
                                "is_active_output" : true, 
                                "name" : "World Output", 
                                "outputs" : [], 
                                "type" : "OUTPUT_MAX"
                            }
                        ]
                    }, 
                    "profile" : "max", 
                    "useShadeless" : false
                }
            }, 
            "name" : "Verge3D_Environment"
        }
    ], 
    "meshes" : [
        {
            "name" : "Box001", 
            "primitives" : [
                {
                    "attributes" : {
                        "NORMAL" : 2, 
                        "POSITION" : 1, 
                        "TEXCOORD_0" : 3
                    }, 
                    "indices" : 0, 
                    "material" : 0, 
                    "mode" : 4
                }
            ]
        }
    ], 
    "nodes" : [
        {
            "extensions" : {
                "S8S_v3d_node_data" : {
                    "frustumCulling" : true, 
                    "hidden" : false, 
                    "renderOrder" : 0, 
                    "useCastShadows" : true, 
                    "useShadows" : true
                }
            }, 
            "extras" : {
                "customProps" : {
                    "babylonjs_GUID" : "71ab4d2d-5ac8-42d2-a505-6db48cce1a81"
                }
            }, 
            "mesh" : 0, 
            "name" : "Box001", 
            "translation" : [
                -51.38698196411133, 
                0.0, 
                10.98547649383545
            ]
        }, 
        {
            "camera" : 0, 
            "children" : [
                2
            ], 
            "name" : "__DEFAULT_CAMERA__", 
            "rotation" : [
                -0.2391176074743271, 
                -0.36964380741119385, 
                -0.09904573857784271, 
                0.8923991322517395
            ], 
            "scale" : [
                1.0, 
                1.0000001192092896, 
                1.0000001192092896
            ], 
            "translation" : [
                -153.09310913085938, 
                124.99999237060547, 
                153.09310913085938
            ]
        }, 
        {
            "extensions" : {
                "S8S_v3d_node_data" : {
                    "light" : 0
                }
            }, 
            "name" : "__DEFAULT_LIGHT__", 
            "rotation" : [
                3.774895063202166e-08, 
                0.0, 
                0.0, 
                1.0
            ], 
            "scale" : [
                1.0, 
                1.0, 
                1.0
            ], 
            "translation" : [
                60.4176139831543, 
                90.62641143798828, 
                120.83523559570312
            ]
        }
    ], 
    "scene" : 0, 
    "scenes" : [
        {
            "extensions" : {
                "S8S_v3d_scene_data" : {
                    "aaMethod" : "AUTO", 
                    "light" : 1, 
                    "postprocessing" : [], 
                    "shadowMap" : {
                        "renderReverseSided" : false, 
                        "renderSingleSided" : true, 
                        "type" : "PCFPOISSON"
                    }, 
                    "worldMaterial" : 1
                }
            }, 
            "extras" : {
                "animFrameRate" : 30
            }, 
            "name" : "Scene", 
            "nodes" : [
                0, 
                1
            ]
        }
    ]
}
